<svg xmlns="http://www.w3.org/2000/svg" id="Layer_1" width="512" height="512" viewBox="0 0 512 512"><path fill="none" d="M256 48C141.1 48 48 141.1 48 256s93.1 208 208 208 208-93.1 208-208S370.9 48 256 48zm-64 320V144l192 112-192 112z"/><path d="M192 368l192-112-192-112v224zM256 0C114.6 0 0 114.6 0 256s114.6 256 256 256 256-114.6 256-256S397.4 0 256 0zm135.8 391.8C355.5 428 307.3 448 256 448s-99.5-20-135.8-56.2C84 355.5 64 307.3 64 256s20-99.5 56.2-135.8C156.5 84 204.7 64 256 64s99.5 20 135.8 56.2C428 156.5 448 204.7 448 256s-20 99.5-56.2 135.8z"/></svg>