<svg xmlns="http://www.w3.org/2000/svg" id="Layer_3" width="512" height="512" viewBox="0 0 512 512"><path d="M445.3 224C431.8 143.6 368.4 80.2 288 66.7V0h-64v66.7C143.6 80.2 80.2 143.6 66.7 224H0v64h66.7c13.5 80.4 76.9 143.8 157.3 157.3V512h64v-66.7c80.4-13.5 143.8-76.9 157.3-157.3H512v-64h-66.7zm-98.8 122.5C322.3 370.7 290.2 384 256 384s-66.3-13.3-90.5-37.5C141.3 322.3 128 290.2 128 256s13.3-66.3 37.5-90.5c24.2-24.2 56.3-37.5 90.5-37.5s66.3 13.3 90.5 37.5c24.2 24.2 37.5 56.3 37.5 90.5s-13.3 66.3-37.5 90.5zM256 192c-35.3 0-64 28.7-64 64s28.7 64 64 64 64-28.7 64-64-28.7-64-64-64z"/></svg>