<svg xmlns="http://www.w3.org/2000/svg" id="Layer_1" width="512" height="512" viewBox="0 0 512 512"><path d="M385.3 207.3c-7.9 7.5-31.6 37.5-31.6 37.5 1.3-42.4 12-87.9 39.1-119.6-37.7 24.8-59 85.6-68.8 122.8-3.8 14.9-48.4 101.7-27.7 148.3 4-17 13.6-33.5 24.2-48.1 4.9-6.6 25.7-39.7 46.5-86.9 18.3-47.5 48.3-75.2 90.5-98.8-31.7 4.8-49.9 23.1-72.2 44.8zm-95.5 226.6c-.1-10.4 2.6-19.4 7-28.8-9.3 8.2-13 17.5-16.3 30.1.9-14.8 8.1-111.6 8.1-116.4 24.8-70.7 13.7-281.9 45.2-308.2-36.4 6.6-48.7 43.7-60.4 73.2-11.3-34.7-2.2-56.6-40.4-68.8 30.5 25.8 24.4 48.1 30.7 83.8C245.4 75.1 251 45.5 230 21.2 224.1 15 204.3 0 204.3 0c0 .9 15.8 32.6 18.8 49.4s9.9 50.3 8.9 62.7c2.6 68.6 19.8 134.9 31.7 202.1 2 11.5 7.9 45 7.9 45l1.3 13.9c-2.1-9.2-4.1-17.5-5.3-21-3.5-10.1-11.9-35.7-13.9-46.3-28.8-59.2-81.5-175.2-151.8-192.4 39.9 35.4 82.9 82.1 92.5 127.1-21.5-30.1-105.7-94.3-140-117.8C119 189.6 170.9 259 227 333.5c16.3 21.2 36.6 64 38.1 73.7 1.1 7.2 2.4 33.9 3.2 50.4-31.4-75.8-48.6-114.3-106.6-148.4-9.9-5.3-40.6-15.9-40.6-15.9 13.9 15.4 31 16.2 43.8 37.7-26.4-17.3-53.7-20.3-83.8-21.3 96.7 50 149 64 181.6 160 2.6 15.8-1.4 27.6-1 42.2h21.4c-.1-10.2.1-19.8 0-21.9 1.1-6.7 1.3-26.9 4.2-33 10.1-25.7 26.5-37.8 49.3-52.7-20.6 6.8-31 4.3-46.8 29.6zm102.9-308.6z"/></svg>