<svg xmlns="http://www.w3.org/2000/svg" id="Layer_1" width="512" height="512" viewBox="0 0 512 512"><path d="M256 416c64 0 143.9-48 128-128-32 0-192 128-128 128zm0-416S32 160 32 320c0 128 118 192 224 192s224-64 224-192C480 160 256 0 256 0zm147.4 374c-7.8 14.6-19.2 27.7-34 38.7-14.9 11.2-32.6 19.9-52.5 26.1-19.5 6-40.5 9.2-60.9 9.2s-41.4-3.2-60.9-9.2c-19.9-6.1-37.6-14.9-52.5-26.1-14.8-11.1-26.2-24.1-34-38.7-8.4-15.8-12.6-34-12.6-54 0-25.2 8.9-53.9 26.4-85.4 15.8-28.5 38.4-58.6 67-89.4 23.7-25.5 47.6-47.4 66.6-63.5 19 16.1 42.9 37.9 66.7 63.5 28.6 30.9 51.2 61 67 89.4 17.4 31.5 26.3 60.2 26.3 85.4 0 20-4.3 38.2-12.6 54z"/></svg>