<svg xmlns="http://www.w3.org/2000/svg" id="Layer_1" width="512" height="512" viewBox="0 0 512 512"><path d="M160 224c17.7 0 32-14.3 32-32s-14.3-32-32-32-32 14.3-32 32 14.3 32 32 32zm96 96c-23.6 0-44.3-12.9-55.4-32H132c14.2 55.2 64.3 96 124 96 59.6 0 109.8-40.8 124-96h-68.6c-11.1 19.1-31.8 32-55.4 32zm0-320C114.6 0 0 114.6 0 256s114.6 256 256 256 256-114.6 256-256S397.4 0 256 0zm135.8 391.8C355.5 428 307.3 448 256 448s-99.5-20-135.8-56.2C84 355.5 64 307.3 64 256s20-99.5 56.2-135.8C156.5 84 204.7 64 256 64s99.5 20 135.8 56.2C428 156.5 448 204.7 448 256s-20 99.5-56.2 135.8zM352 160c-17.7 0-32 14.3-32 32s14.3 32 32 32 32-14.3 32-32-14.3-32-32-32z"/></svg>