<svg xmlns="http://www.w3.org/2000/svg" id="Layer_1" width="512" height="512" viewBox="0 0 512 512"><path d="M308.8 129.6l14.4 14.4c28.8 30.4 51.2 60.8 67.2 89.6 17.6 32 27.2 60.8 27.2 84.8 0 19.2-4.8 38.4-12.8 54.4-8 14.4-19.2 27.2-33.6 38.4-14.4 11.2-32 19.2-52.8 25.6-20.8 8-41.6 11.2-62.4 11.2s-41.6-3.2-60.8-9.6c-19.2-6.4-36.8-14.4-52.8-25.6-14.4-11.2-25.6-24-33.6-38.4-8-16-12.8-33.6-12.8-54.4 0-19.2 6.4-41.6 20.8-67.2 3.2-6.4 6.4-12.8 11.2-19.2 25.6 20.8 49.6 25.6 65.6 25.6 27.2 0 52.8-12.8 73.6-35.2 12.8-16 24-35.2 32-59.2 3.2-11.2 6.4-22.4 9.6-35.2M256 0c0 124.8-27.2 195.2-62.4 195.2-19.2 0-43.2-20.8-65.6-67.2-52.8 59.2-96 128-96 192 0 128 118.4 192 224 192s224-64 224-192C480 160 256 0 256 0z"/></svg>