<svg xmlns="http://www.w3.org/2000/svg" id="Layer_1" width="512" height="512" viewBox="0 0 512 512"><path d="M256 0C114.6 0 0 114.6 0 256s114.6 256 256 256 256-114.6 256-256S397.4 0 256 0zm0 448c-106 0-192-86-192-192S150 64 256 64s192 86 192 192-86 192-192 192zm7.2-191.5l-65.7-84.1 18.4 105.2c-5 7.6-7.9 16.6-7.9 26.4 0 26.5 21.5 48 48 48s48-21.5 48-48c0-24-17.7-44-40.8-47.5zM256 96c-77.4 0-142 55-156.8 128h36.5c5.5-21 16.5-40.2 32.3-56 23.5-23.5 54.8-36.4 88-36.4s64.5 12.9 88 36.4c15.8 15.8 26.8 35 32.3 56h36.5C398 151 333.4 96 256 96z"/></svg>