<svg xmlns="http://www.w3.org/2000/svg" id="Layer_1" width="512" height="512" viewBox="0 0 512 512"><path d="M247.6 0c10.7 5.9 47 30 47 73.5 0 38.5-62.1 153.3-38 183.1l154-192s38.3 46.6 15.3 86c-23.9 41-82.8 89-106.4 124.7-14.6 22.1-7.5 33.9-7.5 33.9L498.7 207s15 44.5-20.5 76.5c-37.5 33.8-125.8 47.2-125.8 82.4h128.2s-13.1 38.9-37.9 44.3c-21.9 4.8-68.6-7.9-90.6 11.9-23.3 21-49.4 89.9-127.5 89.9-52.5 0-93.2-37.9-118.5-87.6-29.2-57.5-62-85.2-95.7-92.2 0 0 18.4-43.5 66.8-43.5 66.6 0 95.1 109.1 145.4 109.1 14.5 0 29.9-7.5 29.9-28.9 0-23.2-33.4-42.4-42.7-48.8-22.1-15.4-39.8-39.9-28.4-81L247.6 0"/></svg>