<svg xmlns="http://www.w3.org/2000/svg" width="512" height="512" viewBox="0 0 512 512"><path d="M427 0H85C38.25 0 0 38.25 0 85v342c0 46.75 38.25 85 85 85h342c46.75 0 85-38.25 85-85V85c0-46.75-38.25-85-85-85zM163.9 224h184.2a97.083 97.083 0 0 1 5.4 32c0 53.762-43.738 97.5-97.5 97.5s-97.5-43.738-97.5-97.5a97.083 97.083 0 0 1 5.4-32zm284.1.025V416c0 17.6-14.4 32-32 32H96c-17.6 0-32-14.4-32-32V224h50.054a145.43 145.43 0 0 0-3.554 32c0 80.229 65.271 145.5 145.5 145.5S401.5 336.229 401.5 256a145.37 145.37 0 0 0-3.554-32H448v.025zM448 112c0 8.8-7.2 16-16 16h-32c-8.8 0-16-7.2-16-16V80c0-8.8 7.2-16 16-16h32c8.8 0 16 7.2 16 16v32z"/></svg>