<svg xmlns="http://www.w3.org/2000/svg" id="Layer_1" width="512" height="512" viewBox="0 0 512 512"><path d="M502.666 434.783L385.061 317.178C404.672 285.442 416 248.047 416 208 416 93.125 322.875 0 208 0S0 93.125 0 208s93.125 208 208 208c40.047 0 77.442-11.328 109.178-30.939l117.605 117.605c12.445 12.445 32.81 12.445 45.255 0l22.628-22.628c12.445-12.445 12.445-32.81 0-45.255zm-396.489-124.96C78.979 282.625 64 246.464 64 208s14.979-74.625 42.177-101.823C133.375 78.979 169.536 64 208 64s74.625 14.979 101.823 42.177C337.021 133.375 352 169.536 352 208s-14.979 74.625-42.177 101.823C282.625 337.021 246.464 352 208 352s-74.625-14.979-101.823-42.177z"/></svg>