<svg xmlns="http://www.w3.org/2000/svg" id="Layer_1" width="512" height="512" viewBox="0 0 512 512"><path d="M470.6 134.6L345.4 9.4c-6-6-14.1-9.4-22.6-9.4H32v288h64V64h224v96h96v288H288v64h192V157.3c0-8.5-3.4-16.7-9.4-22.7zM288 320h64v-32c0-52.9-43.1-96-96-96s-96 43.1-96 96v32H31.7C14.3 320 0 334.3 0 351.7v128.6C0 497.7 14.3 512 31.7 512h192.6c17.4 0 31.7-14.3 31.7-31.7V351.7c0-17.4-14.3-31.7-31.7-31.7h-.3v-32c0-17.6 14.4-32 32-32s32 14.4 32 32v32zM128 448c-17.7 0-32-14.3-32-32s14.3-32 32-32 32 14.3 32 32-14.3 32-32 32z"/></svg>