<svg xmlns="http://www.w3.org/2000/svg" id="Layer_1" width="512" height="512" viewBox="0 0 512 512"><path d="M32 160v64c34.588 0 68.107 6.76 99.627 20.091 30.477 12.891 57.861 31.358 81.392 54.889s41.999 50.915 54.889 81.392C281.24 411.893 288 445.412 288 480h64c0-176.731-143.269-320-320-320zm96 160c-35.346 0-64 28.654-64 64s28.654 64 64 64 64-28.654 64-64-28.654-64-64-64zM32 32v64c51.868 0 102.15 10.144 149.451 30.15 45.719 19.337 86.792 47.034 122.078 82.321 35.287 35.286 62.983 76.359 82.321 122.078C405.856 377.85 416 428.132 416 480h64C480 232.576 279.424 32 32 32z"/></svg>