<svg xmlns="http://www.w3.org/2000/svg" id="Layer_1" width="512" height="512" viewBox="0 0 512 512"><path d="M24.7 260.2c-1.1 0-2 .9-2.1 2.1l-5 46 5 45c.1 1.2 1 2.1 2.1 2.1s2-.8 2.1-2.1l5.7-45-5.7-46c-.1-1.2-1-2.1-2.1-2.1zM5.8 277.8c-1.1 0-1.9.8-2.1 2L0 308.3l3.7 28c.1 1.2 1 2 2.1 2 1 0 1.9-.8 2-2l4.4-28-4.4-28.4c-.1-1.3-1-2.1-2-2.1zm39-26.6c-1.4 0-2.4 1.1-2.6 2.5l-4.8 54.6 4.8 52.6c.1 1.5 1.2 2.5 2.6 2.5 1.3 0 2.4-1.1 2.6-2.5l5.4-52.6-5.4-54.6c-.2-1.5-1.2-2.5-2.6-2.5zm20.3-1.9c-1.6 0-2.9 1.3-3 3l-4.5 56.1 4.5 54.2c.1 1.7 1.4 2.9 3 2.9s2.9-1.3 3-2.9l5.1-54.2-5.1-56.1c-.1-1.8-1.4-3-3-3zM89 362.9v.1zm0-106.6c-.1-1.9-1.6-3.4-3.4-3.4-1.8 0-3.3 1.5-3.4 3.4l-4.3 52 4.3 54.7c.1 1.9 1.6 3.4 3.4 3.4 1.8 0 3.3-1.5 3.4-3.4l4.8-54.7-4.8-52zm17.2-36.4c-2.1 0-3.8 1.7-3.9 3.8l-4 84.6 4 54.7c.1 2.1 1.8 3.8 3.9 3.8 2.1 0 3.8-1.7 3.9-3.8l4.5-54.7-4.5-84.6c-.2-2.2-1.9-3.8-3.9-3.8zm20.4-19.5c-2.3 0-4.2 1.9-4.3 4.3l-3.7 103.9 3.7 54.3c.1 2.4 2 4.3 4.3 4.3s4.2-1.9 4.3-4.3l4.2-54.3-4.2-103.9c-.1-2.5-2-4.3-4.3-4.3zm21.3-9.4c-2.6 0-4.7 2.1-4.8 4.7l-3.5 112.6 3.5 53.8c.1 2.6 2.2 4.7 4.8 4.7 2.6 0 4.6-2.1 4.8-4.7l3.9-53.8-3.9-112.6c-.2-2.7-2.3-4.7-4.8-4.7zm26.3.9c-.1-2.9-2.4-5.2-5.2-5.2-2.8 0-5.1 2.3-5.2 5.2l-3.2 116.4 3.2 53.4c.1 2.9 2.4 5.1 5.2 5.1 2.8 0 5.1-2.3 5.2-5.1l3.6-53.4-3.6-116.4zm0 169.8v.1zm16.1-172.4c-3.1 0-5.6 2.5-5.6 5.6l-3 113.4 3 52.9c.1 3.1 2.5 5.6 5.6 5.6 3.1 0 5.5-2.5 5.6-5.6l3.3-52.9-3.3-113.5c-.1-3.1-2.6-5.5-5.6-5.5zm21.4 3.7c-3.3 0-6 2.7-6.1 6l-2.7 109.3 2.7 52.6c.1 3.3 2.7 6 6.1 6 3.3 0 6-2.6 6.1-6l3-52.6-3-109.3c-.1-3.4-2.8-6-6.1-6zm25.2-20.1c-1-.7-2.3-1.1-3.6-1.1-1.3 0-2.5.4-3.5 1.1-1.8 1.2-3 3.2-3 5.4v1.2l-2.4 128.8c0 .1 2.5 52.3 2.5 52.3v.2c.1 1.5.6 2.8 1.5 3.9 1.2 1.4 3 2.4 5 2.4 1.8 0 3.4-.7 4.5-1.9 1.2-1.2 1.9-2.8 2-4.6l.3-5.2 2.5-47-2.7-130.1c-.3-2.3-1.4-4.2-3.1-5.4zm2.9 187.7zm18.5-200c-1-.6-2.2-1-3.5-1-1.7 0-3.2.6-4.4 1.6-1.5 1.3-2.5 3.2-2.6 5.3v.7L245 308.4l1.4 26.1 1.4 25.4c0 3.8 3.2 6.9 6.9 6.9 3.8 0 6.9-3.1 6.9-6.9v.1l3.1-51.5-3.1-141.9c.1-2.6-1.3-4.8-3.3-6zM449 241.2c-8.6 0-16.9 1.7-24.4 4.9-5-56.8-52.6-101.3-110.7-101.3-14.2 0-28.1 2.8-40.3 7.5-4.8 1.8-6 3.7-6.1 7.4v199.9c.1 3.9 3 6.9 6.8 7.2h174.6c34.8 0 63-27.9 63-62.7.1-34.7-28.1-62.9-62.9-62.9z"/></svg>