<svg xmlns="http://www.w3.org/2000/svg" id="Layer_1" width="512" height="512" viewBox="0 0 512 512"><path fill="none" d="M224 288v-64h64v64h96c35.3 0 64-28.7 64-64 0-19.7-8.5-33.7-15.6-41.9-10-11.5-23.7-19.1-38.7-21.4l-35.3-5.3-14-32.9C329.3 87 294.6 64 256 64c-52.9 0-96 43.1-96 96v64H96c-17.6 0-32 14.4-32 32s14.4 32 32 32h128z"/><path d="M224 512h64V320h-64v192zM403.3 97.4C379 40.2 322.2 0 256 0 167.6 0 96 71.6 96 160c-53 0-96 43-96 96s43 96 96 96h9.1L128 480h64l-32-192H96c-17.6 0-32-14.4-32-32s14.4-32 32-32h64v-64c0-52.9 43.1-96 96-96 38.6 0 73.3 23 88.4 58.5l14 32.9 35.3 5.3c14.9 2.3 28.7 9.8 38.7 21.4 7.1 8.2 15.6 22.1 15.6 41.9 0 35.3-28.7 64-64 64h-32l-32 192h64l23.2-130.1C466.8 339 512 286.8 512 224c0-64.1-47.2-117.2-108.7-126.6z"/></svg>