<svg xmlns="http://www.w3.org/2000/svg" id="Layer_1" width="512" height="512" viewBox="0 0 512 512"><path d="M498.2 238c-48.9-27.8-101.5-46.4-156.7-55.3-7.3-11.4-17.4-21.3-29.9-28.8-16.3-9.9-35.4-15.1-55.2-15.1-36.8 0-69.9 18.2-86.6 46.4-91.6 16.6-152.7 51.4-155.4 52.9-7 4-11.3 11.5-11.3 19.5s4.3 15.5 11.3 19.5c4.4 2.5 108.4 61.6 249.6 61.6 83.3 0 162.1-20.7 234.2-61.6 7-3.9 11.4-11.4 11.4-19.5s-4.4-15.6-11.4-19.6zM264 293.7c-77.8 0-144.1-20.1-184.7-36.1 26.6-10.5 64.3-22.8 109.3-30.1 7.9-1.3 14.5-6.6 17.4-14.1 6.8-17.5 27.5-29.7 50.5-29.7 22.5 0 42.6 11.4 50 28.4 3.1 7.3 9.8 12.3 17.6 13.4 39.2 5.4 77.1 16.1 113.1 32-54.4 24.1-112.5 36.2-173.2 36.2z"/></svg>