<svg xmlns="http://www.w3.org/2000/svg" id="Layer_1" width="512" height="512" viewBox="0 0 512 512"><path d="M493.1 370.6c-3.1-12.7-6.1-24-8.6-30.6-8.1-21.3-47.1-36.7-81.8-47.4l-5.6-1.3c-13.3 8.7-28.7 13.6-45.1 13.6-16.4 0-31.7-5-45.1-13.6l-5.6 1.3c-34.8 10.8-73.8 26.1-81.8 47.4-2.5 6.6-5.6 17.9-8.6 30.6 0 0-9.6 45.3 6.5 45.3h269.2c16.2.1 6.5-45.3 6.5-45.3zm-141-89.6c39.8 0 72-37.6 72-84s-32.3-84-72-84c-39.8 0-72 37.6-72 84s32.2 84 72 84zm-192 0c39.8 0 72-37.6 72-84s-32.3-84-72-84c-39.8 0-72 37.6-72 84s32.2 84 72 84zm50.7 11.7l-5.6-1.3c-13.4 8.6-28.7 13.6-45.1 13.6-16.4 0-31.8-4.9-45.1-13.6l-5.6 1.3c-34.7 10.7-73.7 26.1-81.8 47.4-2.5 6.6-5.5 17.9-8.6 30.6 0 0-9.6 45.3 6.5 45.3h152c-3.2-16.8 2.5-44.7 2.6-44.6 3.7-15.9 7.4-30.2 10.4-38.5 4.8-13.4 18.9-24.9 37-34.7-5.6-2-11.2-3.8-16.7-5.5z"/></svg>