<svg xmlns="http://www.w3.org/2000/svg" id="Layer_1" width="512" height="512" viewBox="0 0 512 512"><path id="XMLID_207_" d="M84.8 319.7H23.3c-12.6 0-5.1-35.6-5.1-35.6 2.4-9.9 4.8-18.9 6.8-24 6.4-16.8 37-28.8 64.3-37.2l4.4-1c10.5 6.8 22.5 10.7 35.4 10.7 9.9 0 19.4-2.3 28-6.5 3.9 13.7 9.9 26.3 17.7 37.3-39.3 13.6-78.7 32-90 56.3zM152 189.2c0-29.4 9.3-56.2 24.8-76.9-10-18.4-27.7-30.6-47.7-30.6-31.2 0-56.6 29.5-56.6 66 0 36.4 25.3 66 56.6 66 8.6 0 16.8-2.3 24.1-6.3-.8-5.9-1.2-12-1.2-18.2zM382.9 81.7c-20.1 0-37.7 12.2-47.8 30.7 15.4 20.7 24.7 47.5 24.7 76.8 0 6.2-.4 12.2-1.2 18.1 7.3 4.1 15.6 6.4 24.2 6.4 31.2 0 56.6-29.5 56.6-66 .1-36.5-25.2-66-56.5-66zm110.9 202.4c-2.4-9.9-4.8-18.9-6.8-24-6.4-16.8-37-28.8-64.3-37.2l-4.4-1c-10.5 6.8-22.5 10.7-35.4 10.7-10 0-19.5-2.4-28.1-6.6-3.9 13.7-10 26.3-17.7 37.3 39.2 13.7 78.6 32.1 89.9 56.4h61.6c12.7 0 5.2-35.6 5.2-35.6zM255.9 102.2c-41.2 0-74.6 38.9-74.6 87s33.4 87 74.6 87 74.6-38.9 74.6-87-33.4-87-74.6-87zM402 369c-3.2-13.1-6.3-24.9-8.9-31.7-8.4-22.1-48.7-38-84.8-49.1l-5.8-1.3c-13.8 9-29.7 14.1-46.7 14.1-16.9 0-32.8-5.1-46.7-14.1l-5.8 1.3c-36 11.1-76.4 27-84.8 49.1-2.6 6.8-5.8 18.6-8.9 31.7 0 0-10 47 6.7 47h278.8c16.9 0 6.9-47 6.9-47z"/></svg>